<svg fill="#c69a4a" fill-opacity="0.055"
     stroke="#e4bd63" stroke-opacity="0.64" stroke-width="1.45"
     stroke-linecap="round" stroke-linejoin="round"
     height="200px" width="200px" version="1.1"
     xmlns="http://www.w3.org/2000/svg" viewBox="0 0 512 512">

  <g transform="translate(1 1)">
    <g>
      <g>
        <!-- Cornice esterna -->
        <path d="M438.467-1H127H89.453c-12.8,0-22.187,9.387-22.187,22.187V50.2h-8.533
        c-5.12,0-8.533,3.413-8.533,8.533s3.413,8.533,8.533,8.533h8.533v375.467h-8.533
        c-5.12,0-8.533,3.413-8.533,8.533c0,5.12,3.413,8.533,8.533,8.533h8.533v29.013
        c0,12.8,9.387,22.187,22.187,22.187H127h310.613c12.8,0,22.187-9.387,22.187-21.333
        V21.187C459.8,8.387,450.413-1,438.467-1z M89.453,493.933c-3.413,0-5.12-1.707-5.12-4.267
        V459.8h8.533c5.12,0,8.533-3.413,8.533-8.533c0-5.12-3.413-8.533-8.533-8.533h-8.533
        V67.267h8.533c5.12,0,8.533-3.413,8.533-8.533S97.987,50.2,92.867,50.2h-8.533V21.187
        c0-3.413,1.707-5.12,5.12-5.12h29.013v477.867H89.453z M443.587,488.813
        c0,3.413-2.56,5.12-5.12,5.12H135.533V16.067h302.08c3.413,0,5.12,1.707,5.973,5.12
        V488.813z"></path>

        <!-- Cornice interna -->
        <path d="M408.6,101.4c-28.16,0-51.2-23.04-51.2-51.2c0-5.12-3.413-8.533-8.533-8.533h-34.133
        h-51.2H229.4c-5.12,0-8.533,3.413-8.533,8.533c0,28.16-23.04,51.2-51.2,51.2
        c-5.12,0-8.533,3.413-8.533,8.533v290.133c0,5.12,3.413,8.533,8.533,8.533
        c28.16,0,51.2,23.04,51.2,51.2c0,5.12,3.413,8.533,8.533,8.533h34.133h51.2h34.133
        c5.12,0,8.533-3.413,8.533-8.533c0-28.16,23.04-51.2,51.2-51.2c5.12,0,8.533-3.413,8.533-8.533
        V109.933C417.133,104.813,413.72,101.4,408.6,101.4z M306.2,58.733V127h-34.133V58.733H306.2z
        M399.213,268.855c-6.782,54.857-53.334,97.078-110.08,97.078C227.693,365.933,178.2,316.44,178.2,255
        s49.493-110.933,110.933-110.933c56.746,0,103.298,42.221,110.08,97.078V268.855z
        M178.2,117.613c30.72-3.413,54.613-28.16,58.88-58.88H255v72.855
        c-32.756,9.003-60.208,30.654-76.8,59.407V117.613z
        M178.2,391.533v-72.528c16.592,28.753,44.044,50.404,76.8,59.407v72.855h-17.92
        C233.667,420.547,208.92,395.8,178.2,391.533z
        M272.067,451.267V383H306.2v68.267H272.067z
        M399.213,392.387c-30.72,3.413-54.613,28.16-58.88,58.88h-17.067v-72.855
        c32.203-8.852,59.276-29.93,75.947-57.962V392.387z
        M323.267,131.588V58.733h17.067c3.413,30.72,28.16,54.613,58.88,58.88v71.936
        C382.543,161.518,355.47,140.44,323.267,131.588z"></path>

      </g>
    </g>
  </g>
</svg>
