<?xml version="1.0" encoding="iso-8859-1"?>
<!-- Uploaded to: SVG Repo, www.svgrepo.com, Generator: SVG Repo Mixer Tools -->
<svg fill="#000000" height="800px" width="800px" version="1.1" id="Layer_1" xmlns="http://www.w3.org/2000/svg" xmlns:xlink="http://www.w3.org/1999/xlink" 
	 viewBox="0 0 512 512" xml:space="preserve">
<g>
	<g>
		<path d="M289.67,342.498c16.297-17.908,26.245-41.694,26.245-67.759c0-18.752-5.276-37.093-15.026-52.907
			c1.855-1.498,3.043-3.788,3.043-6.358c0-4.513-3.657-8.17-8.17-8.17H163.404v-24.511c0-28.531,23.213-51.745,51.745-51.745
			c28.531,0,51.745,23.213,51.745,51.745v10.894c0,4.513,3.657,8.17,8.17,8.17s8.17-3.657,8.17-8.17v-10.894
			c0-37.543-30.544-68.085-68.085-68.085c-37.542,0-68.085,30.542-68.085,68.085v24.511h-3.001c-0.012,0-0.024,0-0.037,0h-9.489
			c-4.512,0-8.17,3.657-8.17,8.17c0,2.57,1.188,4.86,3.044,6.358c-9.75,15.814-15.027,34.155-15.027,52.907
			c0,26.066,9.949,49.851,26.248,67.76l-8.815,21.77c-1.694,4.182,0.324,8.946,4.507,10.64c1.004,0.406,2.043,0.599,3.064,0.599
			c3.23,0,6.289-1.929,7.575-5.107l6.497-16.044c17.059,13.248,38.469,21.149,61.691,21.149s44.631-7.9,61.691-21.149l6.497,16.044
			c1.288,3.179,4.346,5.107,7.577,5.107c1.021,0,2.059-0.193,3.063-0.599c4.183-1.694,6.2-6.458,4.508-10.64L289.67,342.498z
			 M215.149,359.164c-46.552,0-84.426-37.874-84.426-84.426c0-18.466,6.088-36.464,17.213-51.093h134.425
			c11.125,14.629,17.213,32.628,17.213,51.093C299.574,321.291,261.701,359.164,215.149,359.164z"/>
	</g>
</g>
<g>
	<g>
		<path d="M471.151,32.681c-4.513,0-8.17,3.657-8.17,8.17v430.298c0,4.513,3.657,8.17,8.17,8.17s8.17-3.657,8.17-8.17V40.851
			C479.321,36.338,475.664,32.681,471.151,32.681z"/>
	</g>
</g>
<g>
	<g>
		<path d="M438.47,32.681c-4.513,0-8.17,3.657-8.17,8.17v430.298c0,4.513,3.657,8.17,8.17,8.17s8.17-3.657,8.17-8.17V40.851
			C446.641,36.338,442.984,32.681,438.47,32.681z"/>
	</g>
</g>
<g>
	<g>
		<path d="M405.787,0H24.511C10.995,0,0,10.996,0,24.511c0,10.652,6.83,19.738,16.34,23.111v416.757
			C6.83,467.751,0,476.838,0,487.489C0,501.004,10.995,512,24.511,512h381.277c4.513,0,8.17-3.657,8.17-8.17V8.17
			C413.957,3.657,410.3,0,405.787,0z M397.617,495.66H24.511c-4.506,0-8.17-3.665-8.17-8.17c0-4.506,3.665-8.17,8.17-8.17
			c4.512,0,8.17-3.657,8.17-8.17V40.851c0-4.513-3.658-8.17-8.17-8.17c-4.506,0-8.17-3.665-8.17-8.17c0-4.506,3.665-8.17,8.17-8.17
			h373.106V495.66z"/>
	</g>
</g>
<g>
	<g>
		<path d="M503.83,0h-65.362c-4.513,0-8.17,3.657-8.17,8.17s3.657,8.17,8.17,8.17h57.191V495.66h-57.191
			c-4.513,0-8.17,3.657-8.17,8.17s3.657,8.17,8.17,8.17h65.362c4.513,0,8.17-3.657,8.17-8.17V8.17C512,3.657,508.343,0,503.83,0z"/>
	</g>
</g>
<g>
	<g>
		<path d="M373.106,65.362c-13.515,0-24.511-10.996-24.511-24.511c0-4.513-3.657-8.17-8.17-8.17H89.872
			c-4.512,0-8.17,3.657-8.17,8.17c0,13.515-10.995,24.511-24.511,24.511c-4.512,0-8.17,3.657-8.17,8.17v364.936
			c0,4.513,3.658,8.17,8.17,8.17c13.516,0,24.511,10.996,24.511,24.511c0,4.513,3.658,8.17,8.17,8.17h250.553
			c4.513,0,8.17-3.657,8.17-8.17c0-13.515,10.996-24.511,24.511-24.511c4.513,0,8.17-3.657,8.17-8.17V73.532
			C381.277,69.019,377.62,65.362,373.106,65.362z M364.936,431.118c-15.982,3.258-28.602,15.879-31.861,31.861H97.222
			c-3.257-15.982-15.879-28.602-31.861-31.861V80.882c15.982-3.258,28.602-15.879,31.861-31.861h235.853
			c3.258,15.982,15.878,28.602,31.861,31.861V431.118z"/>
	</g>
</g>
</svg>